# xmcd
#
# Track frame offsets:
#	183
#	22955
#	38540
#	63535
#	80750
#	96988
#	119393
#	141765
#
# Disc length: 2111 seconds
#
# Revision: 1
# Processed by: cddbd v1.5.2PL0 Copyright (c) Steve Scherf et al.
# Submitted via: audiograbber 1.83.01
#
DISCID=66083d08
DTITLE=Roland and Friends - Live (Gentse Feesten)
DYEAR=1983
DGENRE=Blues
TTITLE0=Mailtrain
TTITLE1=Workin'Class White Boy
TTITLE2=Mainline Prosperity Blues
TTITLE3=Brand New Car
TTITLE4=Kansas City
TTITLE5=Chain Gang
TTITLE6=Newspaper New Man
TTITLE7=Junko Partner
EXTD=
EXTT0=
EXTT1=
EXTT2=
EXTT3=
EXTT4=
EXTT5=
EXTT6=
EXTT7=
PLAYORDER=
